<?xml version="1.0" encoding="utf-8"?>
<!-- Generator: Adobe Illustrator 19.2.0, SVG Export Plug-In . SVG Version: 6.00 Build 0)  -->
<svg version="1.1" id="Layer_1" xmlns="http://www.w3.org/2000/svg" xmlns:xlink="http://www.w3.org/1999/xlink" x="0px" y="0px"
	 viewBox="0 0 400.3 147" style="enable-background:new 0 0 400.3 147;" xml:space="preserve">
<style type="text/css">
	.st0{fill:#FFFFFF;}
</style>
<path class="st0" d="M400.3,115.3C365.4,55,313.3,20.7,244.4,11.5c7,3.3,14.2,6.4,21,10c19,10,38.4,19.2,56.6,30.6
	c24.9,15.6,43.5,37.5,57.4,63.4c6.3,11.8,2.3,24.7-9,29.4c-11.2,4.7-23.5-1.2-27.7-13.8C332.2,99.6,314.4,73,289,51.3
	c-8.6-7.4-18.4-10.9-29-13.5c-85.1-21.2-161.3,23.3-195.8,88c-0.8,1.5-1.7,3-2.7,4.5C78.4,80.4,141.6,17.2,230.9,20.6
	c-6.6-1.5-13.1-3.3-19.8-4.6c-23.9-4.5-46.3,0.5-67.9,10.6C96,48.6,61.6,82.9,40.9,130.8c-1.7,4-4.2,8.1-7.3,11.1
	c-6.8,6.4-16.9,6.6-24.5,1.4c-8.1-5.5-11.1-14.7-7.5-24.2c6.9-18,16.1-34.8,28.5-49.7C56.1,38,88,15.2,128.3,5.4
	c21.6-5.3,43.4-6.8,65.5-4c3.9,0.5,7.9-0.3,11.9-0.7c37.1-3.1,71.8,5.2,104.7,22.2c38.7,19.9,67.7,49.6,88,88
	C399,112.3,399.6,113.8,400.3,115.3z M139.2,16c-0.8,0.1-1.6,0.2-2.4,0.4c-47.4,11-83.4,37.9-109,78.8c-5.5,8.8-9.6,18.6-14,28.1
	c-2,4.2-0.1,8.5,3.6,10.1c3.9,1.6,7.8,0.1,10-4c1-1.9,1.8-3.9,2.7-5.9c14.7-31.8,35.7-58.8,63.4-80.3
	C107.6,32.2,122.8,23.5,139.2,16z M323.8,69.2c13.4,17.9,23.8,37.3,30.8,58.5c0.3,0.8,0.6,1.6,1,2.3c2.3,3.9,6.5,5.3,10.2,3.5
	c3.4-1.7,5.2-5.8,3.6-9.8c-0.9-2.5-2.4-4.8-3.7-7.1C355,98,341.3,81.9,323.8,69.2z"/>
<path class="st0" d="M249.6,94.6c0,9.4,0,18.5,0,27.8c-6.3,0.5-12.3,1.5-18.2,1.2c-7-0.4-12.5-7.8-12.4-15.2
	c0.1-7.6,5.6-14.4,12.9-14.8C237.6,93.2,243.4,94.2,249.6,94.6z M234.3,116.5c4.3,0.1,8.1-3.6,8.1-7.8c0-4.2-3.4-7.6-7.6-7.7
	c-4.3-0.1-7.7,3-7.9,7.3C226.6,112.7,229.9,116.4,234.3,116.5z"/>
<path class="st0" d="M142.2,124c-8.4,0-15.4-6.8-15.5-15.1c-0.1-8.5,7-15.7,15.5-15.7c8.2,0,15.3,7,15.5,15.3
	C157.9,116.8,150.8,124,142.2,124z M149.9,108.9c0.1-4.3-3-7.7-7.3-7.9c-4.2-0.2-7.7,3-7.9,7.2c-0.2,4.5,3.1,8.2,7.5,8.2
	C146.4,116.5,149.8,113.2,149.9,108.9z"/>
<path class="st0" d="M171.1,122.9c-3,0-4.9,0-7.5,0c0-9.6,0-18.9,0-28.5c5.9-0.4,11.5-1.2,17.1-0.9c5.3,0.3,9.4,4.7,9.8,10.4
	c0.5,6.1,0.1,12.3,0.1,19c-2.6,0-5,0-7.9,0c0-5,0.1-9.6,0-14.2c-0.1-4.9-2.4-7.9-6-7.6c-4.5,0.4-5.7,3.5-5.7,7.4
	C171,113.1,171.1,117.7,171.1,122.9z"/>
<path class="st0" d="M197,86.9c2.7,0,4.8,0,7.4,0c0.3,2.8,0.5,5.4,0.8,8.5c3.4,0.3,6.7,0.5,10.2,0.8c0.3,7.6-5.2,6.6-9.5,6.9
	c-3.3,10-1,13.7,7.6,12c0.9,1.7,1.8,3.5,2.8,5.5c-3.9,3.8-8.2,4-12.7,2.8c-4-1.1-6.3-4.2-6.4-8C196.8,106,197,96.8,197,86.9z"/>
<path class="st0" d="M284.5,87c2.6,0,4.5,0,6.9,0c0.4,2.8,0.8,5.5,1.2,8.6c3.5,0.2,6.7,0.4,10,0.6c-0.5,5.7-0.5,5.7-9.5,7.1
	c-3.4,9.3-1,13.2,7.9,12c0.8,1.6,1.7,3.3,2.6,5.3c-4.1,3.6-8.4,4-13.1,2.4c-4.2-1.5-5.9-4.9-5.9-8.9
	C284.4,105.1,284.5,96.2,284.5,87z"/>
<path class="st0" d="M124.2,96.6c-0.9,1.7-1.9,3.6-2.9,5.5c-4.8-1.4-9.6-2.6-12.1,2.4c-1.1,2.2-1,6,0.2,8.3c2.7,5,7.5,3.7,12.2,2
	c0.9,2.1,1.8,3.9,2.6,5.7c-6.2,5-14.5,4.1-19.9-1.7c-5.4-5.8-5.3-15.1,0-20.9C109.6,92.3,118.2,91.6,124.2,96.6z"/>
<path class="st0" d="M279.6,96.4c-0.9,1.9-1.7,3.7-2.7,5.7c-4.8-1.3-9.4-2.6-12.6,2.4c-1.9,3-1.7,6,0.4,8.8c3.2,4.3,7.4,3.5,12,1.7
	c1,2,1.9,3.9,2.8,5.5c-4.7,5.2-14.8,3.7-19.5-1.5c-5.2-5.7-5.7-14.1-0.9-20C264.1,92.7,272.2,91.5,279.6,96.4z"/>
</svg>
